<svg xmlns="http://www.w3.org/2000/svg" version="1.1" xmlns:xlink="http://www.w3.org/1999/xlink" xmlns:svgjs="http://svgjs.dev/svgjs" width="1500" height="935" viewBox="0 0 1500 935"><g transform="matrix(1,0,0,1,-0.9090909090909918,0.3785425101214628)"><svg viewBox="0 0 396 247" data-background-color="#ffffff" preserveAspectRatio="xMidYMid meet" height="935" width="1500" xmlns="http://www.w3.org/2000/svg" xmlns:xlink="http://www.w3.org/1999/xlink"><g id="tight-bounds" transform="matrix(1,0,0,1,0.2400000000000091,-0.09999999999999432)"><svg viewBox="0 0 395.52 247.2" height="247.2" width="395.52"><g><svg></svg></g><g><svg viewBox="0 0 395.52 247.2" height="247.2" width="395.52"><g transform="matrix(1,0,0,1,75.54432,91.97986321834922)"><svg viewBox="0 0 244.43135999999998 63.240273563301535" height="63.240273563301535" width="244.43135999999998"><g><svg viewBox="0 0 244.43135999999998 63.240273563301535" height="63.240273563301535" width="244.43135999999998"><g><svg viewBox="0 0 340.69733498296046 88.14659733763378" height="63.240273563301535" width="244.43135999999998"><g transform="matrix(1,0,0,1,0,12.18234449456444)"><svg viewBox="0 0 244.43135999999998 63.7819083485049" height="63.7819083485049" width="244.43135999999998"><g id="textblocktransform"><svg viewBox="0 0 244.43135999999998 63.7819083485049" height="63.7819083485049" width="244.43135999999998" id="textblock"><g><svg viewBox="0 0 244.43135999999998 34.40091363488061" height="34.40091363488061" width="244.43135999999998"><g transform="matrix(1,0,0,1,0,0)"><svg width="244.43135999999998" viewBox="2.05 -35.55 337.12 47.449999999999996" height="34.40091363488061" data-palette-color="#003399"><path d="M2.05-16.95L2.05-16.95Q2.05-25.7 6.48-30.63 10.9-35.55 19-35.55 27.1-35.55 31.23-30.88 35.35-26.2 35.35-17.6L35.35-17.6Q35.35-1.25 21.15 0.05L21.15 0.05 21.15 0.4Q24 0.7 25.38 1.95 26.75 3.2 27.45 5.28 28.15 7.35 28.7 8.1 29.25 8.85 30.35 8.85L30.35 8.85Q32.25 8.85 32.6 4.85L32.6 4.85 33.7 4.95Q33.6 8.25 31.65 10 29.7 11.75 26.23 11.75 22.75 11.75 20.85 10.03 18.95 8.3 17.95 4.95L17.95 4.95Q17.3 2.9 16.85 2.3 16.4 1.7 15.7 1.7L15.7 1.7Q14.3 1.7 12 3.75L12 3.75 11.3 2.95Q13.3 0.95 15.85 0.5L15.85 0.5 15.85 0.2Q9.05-0.5 5.55-4.95 2.05-9.4 2.05-16.95ZM25.05-15.45L25.05-15.45 25.05-19.15Q25.05-28.3 24.15-30.7L24.15-30.7Q23.15-33.45 21.3-34.1L21.3-34.1Q20.25-34.5 18.75-34.5 17.25-34.5 16.18-34.1 15.1-33.7 14.4-32.7 13.7-31.7 13.28-30.6 12.85-29.5 12.6-27.5L12.6-27.5Q12.3-24.6 12.3-18.95L12.3-18.95 12.3-15.35Q12.3-9.25 12.78-6.68 13.25-4.1 13.95-3L13.95-3Q15.5-0.55 18.75-0.55L18.75-0.55Q22.7-0.55 23.88-3.88 25.05-7.2 25.05-15.45ZM66.65-0.9L66.65 0 55.25 0 54.7-3.65Q53.9-1.65 52.32-0.58 50.75 0.5 47.65 0.5L47.65 0.5Q39.9 0.5 39.9-7.85L39.9-7.85 39.9-22.9 37.1-22.9 37.1-23.8 49.2-23.8 49.2-6.65Q49.2-3.65 49.62-2.7 50.05-1.75 51.32-1.75 52.6-1.75 53.6-3.3 54.6-4.85 54.6-7.6L54.6-7.6 54.6-22.9 52.3-22.9 52.3-23.8 63.9-23.8 63.9-0.9 66.65-0.9ZM79.65-11.75L79.65-11.75 81.1-11.75 81.1-15.6Q81.1-20.35 80.57-21.98 80.05-23.6 78.55-23.6L78.55-23.6Q77.65-23.6 76.92-23.13 76.2-22.65 76.2-21.83 76.2-21 76.5-20.15L76.5-20.15 77.75-20.15Q78.15-19.1 78.15-17.63 78.15-16.15 76.9-15.08 75.65-14 73.75-14L73.75-14Q69.45-14 69.45-18.15L69.45-18.15Q69.45-24.3 79.9-24.3L79.9-24.3Q85.85-24.3 88.12-22.28 90.4-20.25 90.4-14.85L90.4-14.85 90.4-4.7Q90.4-2.1 91.85-2.1L91.85-2.1Q93.55-2.1 93.85-7.25L93.85-7.25 94.6-7.2Q94.4-2.8 92.95-1.15 91.5 0.5 88.2 0.5L88.2 0.5Q82.2 0.5 81.3-3.2L81.3-3.2Q80.65-1.3 79.35-0.4 78.05 0.5 75.55 0.5L75.55 0.5Q68.15 0.5 68.15-5.55L68.15-5.55Q68.15-9.1 70.97-10.43 73.8-11.75 79.65-11.75ZM77.65-5.6Q77.65-3 77.92-2.25 78.2-1.5 78.97-1.5 79.75-1.5 80.42-2.78 81.1-4.05 81.1-6.3L81.1-6.3 81.1-10.95 80.75-10.95Q77.65-10.95 77.65-6.4L77.65-6.4 77.65-5.6ZM95.19-22.9L95.19-23.8 107.24-23.8 107.24-19.2Q108.04-21.5 109.69-22.9 111.34-24.3 114.69-24.3L114.69-24.3Q122.44-24.3 122.44-15.95L122.44-15.95 122.44-0.9 125.24-0.9 125.24 0 111.09 0 111.09-0.9 113.14-0.9 113.14-17.15Q113.14-20.15 112.74-21.03 112.34-21.9 111.29-21.9L111.29-21.9Q109.69-21.9 108.47-19.8 107.24-17.7 107.24-14.7L107.24-14.7 107.24-0.9 109.39-0.9 109.39 0 95.19 0 95.19-0.9 97.94-0.9 97.94-22.9 95.19-22.9ZM128.14-7.15L128.14-7.15 128.14-22.9 125.39-22.9 125.39-23.8 128.14-23.8 128.14-30.25 137.44-32.55 137.44-23.8 143.94-23.8 143.94-22.9 137.44-22.9 137.44-6.05Q137.44-3.7 137.92-2.6 138.39-1.5 139.89-1.5 141.39-1.5 142.52-3 143.64-4.5 143.99-7.1L143.99-7.1 144.84-7Q144.44-3.55 142.64-1.53 140.84 0.5 136.69 0.5 132.54 0.5 130.34-1.15 128.14-2.8 128.14-7.15ZM174.34-0.9L174.34 0 162.94 0 162.39-3.65Q161.59-1.65 160.01-0.58 158.44 0.5 155.34 0.5L155.34 0.5Q147.59 0.5 147.59-7.85L147.59-7.85 147.59-22.9 144.79-22.9 144.79-23.8 156.89-23.8 156.89-6.65Q156.89-3.65 157.31-2.7 157.74-1.75 159.01-1.75 160.29-1.75 161.29-3.3 162.29-4.85 162.29-7.6L162.29-7.6 162.29-22.9 159.99-22.9 159.99-23.8 171.59-23.8 171.59-0.9 174.34-0.9ZM175.34-22.9L175.34-23.8 187.39-23.8 187.39-19.2Q189.04-24.3 194.66-24.3 200.29-24.3 201.49-18.9L201.49-18.9Q203.24-24.3 208.84-24.3L208.84-24.3Q216.19-24.3 216.19-15.95L216.19-15.95 216.19-0.9 218.99-0.9 218.99 0 205.14 0 205.14-0.9 206.89-0.9 206.89-17.15Q206.89-20.95 206.24-21.6L206.24-21.6Q205.94-21.9 205.44-21.9L205.44-21.9Q203.99-21.9 202.89-19.95 201.79-18 201.79-15L201.79-15 201.79-0.9 203.59-0.9 203.59 0 190.74 0 190.74-0.9 192.49-0.9 192.49-17.15Q192.49-20.95 191.84-21.6L191.84-21.6Q191.54-21.9 191.04-21.9L191.04-21.9Q189.64-21.9 188.51-19.78 187.39-17.65 187.39-14.7L187.39-14.7 187.39-0.9 189.19-0.9 189.19 0 175.34 0 175.34-0.9 178.09-0.9 178.09-22.9 175.34-22.9ZM229.28-33.9L229.28-35 247.28-35 247.28-33.9 241.98-33.9 241.98-1.1 243.78-1.1Q248.03-1.1 250.56-3.7 253.08-6.3 255.68-11.7L255.68-11.7 256.73-11.7 255.78 0 229.28 0 229.28-1.1 232.23-1.1 232.23-33.9 229.28-33.9ZM271.68 0.5Q265.23 0.5 262-2.83 258.78-6.15 258.78-12.08 258.78-18 262.4-21.15 266.03-24.3 271.63-24.3L271.63-24.3Q282.98-24.3 282.53-12.9L282.53-12.9 268.43-12.9 268.43-10.95Q268.43-6.05 269.68-3.55 270.93-1.05 274.03-1.05L274.03-1.05Q279.83-1.05 281.63-7.25L281.63-7.25 282.53-7.1Q281.58-3.5 279.1-1.5 276.63 0.5 271.68 0.5L271.68 0.5ZM268.48-16.35L268.48-13.9 273.63-13.9 273.63-16.35Q273.63-20.4 273.15-21.88 272.68-23.35 271.25-23.35 269.83-23.35 269.15-21.78 268.48-20.2 268.48-16.35L268.48-16.35ZM296.33-11.75L296.33-11.75 297.78-11.75 297.78-15.6Q297.78-20.35 297.25-21.98 296.73-23.6 295.23-23.6L295.23-23.6Q294.33-23.6 293.6-23.13 292.88-22.65 292.88-21.83 292.88-21 293.18-20.15L293.18-20.15 294.43-20.15Q294.83-19.1 294.83-17.63 294.83-16.15 293.58-15.08 292.33-14 290.43-14L290.43-14Q286.13-14 286.13-18.15L286.13-18.15Q286.13-24.3 296.58-24.3L296.58-24.3Q302.53-24.3 304.8-22.28 307.08-20.25 307.08-14.85L307.08-14.85 307.08-4.7Q307.08-2.1 308.53-2.1L308.53-2.1Q310.23-2.1 310.53-7.25L310.53-7.25 311.28-7.2Q311.08-2.8 309.63-1.15 308.18 0.5 304.88 0.5L304.88 0.5Q298.88 0.5 297.98-3.2L297.98-3.2Q297.33-1.3 296.03-0.4 294.73 0.5 292.23 0.5L292.23 0.5Q284.83 0.5 284.83-5.55L284.83-5.55Q284.83-9.1 287.65-10.43 290.48-11.75 296.33-11.75ZM294.33-5.6Q294.33-3 294.6-2.25 294.88-1.5 295.65-1.5 296.43-1.5 297.1-2.78 297.78-4.05 297.78-6.3L297.78-6.3 297.78-10.95 297.43-10.95Q294.33-10.95 294.33-6.4L294.33-6.4 294.33-5.6ZM329.52-13.45Q329.52-18.6 329.02-20.38 328.52-22.15 327.07-22.15 325.62-22.15 324.47-20.28 323.32-18.4 323.32-15.25L323.32-15.25 323.32-6.1Q323.32-3.95 324.17-2.45 325.02-0.95 326.67-0.95 328.32-0.95 328.92-3.15 329.52-5.35 329.52-10.85L329.52-10.85 329.52-13.45ZM311.37-23.8L323.22-23.8 323.22-19.85Q325.17-24.3 330.12-24.3L330.12-24.3Q334.42-24.3 336.8-21.2 339.17-18.1 339.17-11.8 339.17-5.5 336.6-2.5 334.02 0.5 328.87 0.5L328.87 0.5Q326.47 0.5 325.27-0.1 324.07-0.7 323.32-1.95L323.32-1.95 323.32 11 329.77 11 329.77 11.9 311.27 11.9 311.27 11 314.02 11 314.02-22.9 311.37-22.9 311.37-23.8Z" opacity="1" transform="matrix(1,0,0,1,0,0)" fill="#003399" class="wordmark-text-0" data-fill-palette-color="primary" id="text-0"></path></svg></g></svg></g><g transform="matrix(1,0,0,1,0,42.522143722148684)"><svg viewBox="0 0 244.43135999999998 21.259764626356215" height="21.259764626356215" width="244.43135999999998"><g transform="matrix(1,0,0,1,0,0)"><svg width="244.43135999999998" viewBox="4 -35.01 517.61 45.019999999999996" height="21.259764626356215" data-palette-color="#003399"><path d="M23.71 0L4 0 4-35.01 23.71-35.01 23.71-32.01 7.15-32.01 7.15-18.99 20.56-18.99 20.56-15.99 7.15-15.99 7.15-3 23.71-3 23.71 0ZM48.81 0L47.81 0 46.15-2.54Q45.13-1.15 43.59-0.33 42.05 0.49 40.22 0.49L40.22 0.49 39.46 0.49Q37.95 0.49 36.61-0.09 35.26-0.66 34.26-1.66 33.26-2.66 32.69-4 32.11-5.35 32.11-6.86L32.11-6.86 32.11-18.14Q32.11-19.65 32.69-21 33.26-22.34 34.26-23.34 35.26-24.34 36.61-24.91 37.95-25.49 39.46-25.49L39.46-25.49 40.22-25.49Q41.9-25.49 43.34-24.8 44.78-24.12 45.81-22.9L45.81-22.9 45.81-35.01 48.81-35.01 48.81 0ZM45.81-6.69L45.81-18.31Q45.81-19.21 45.47-20.01 45.13-20.8 44.54-21.39 43.95-21.97 43.16-22.31 42.37-22.66 41.46-22.66L41.46-22.66 39.46-22.66Q38.56-22.66 37.77-22.31 36.97-21.97 36.39-21.39 35.8-20.8 35.46-20.01 35.12-19.21 35.12-18.31L35.12-18.31 35.12-6.69Q35.12-5.79 35.46-4.99 35.8-4.2 36.39-3.61 36.97-3.03 37.77-2.69 38.56-2.34 39.46-2.34L39.46-2.34 41.46-2.34Q42.37-2.34 43.16-2.69 43.95-3.03 44.54-3.61 45.13-4.2 45.47-4.99 45.81-5.79 45.81-6.69L45.81-6.69ZM74.92 0L73.92 0 72.26-2.54Q71.23-1.15 69.7-0.33 68.16 0.49 66.33 0.49L66.33 0.49 65.57 0.49Q64.06 0.49 62.71-0.09 61.37-0.66 60.37-1.66 59.37-2.66 58.79-4 58.22-5.35 58.22-6.86L58.22-6.86 58.22-25 61.22-25 61.22-6.69Q61.22-5.79 61.57-4.99 61.91-4.2 62.49-3.61 63.08-3.03 63.87-2.69 64.67-2.34 65.57-2.34L65.57-2.34 67.57-2.34Q68.47-2.34 69.27-2.69 70.06-3.03 70.65-3.61 71.23-4.2 71.58-4.99 71.92-5.79 71.92-6.69L71.92-6.69 71.92-25 74.92-25 74.92 0ZM101.03-6.86L101.03-6.86Q101.03-5.35 100.45-4 99.88-2.66 98.88-1.66 97.88-0.66 96.53-0.09 95.19 0.49 93.68 0.49L93.68 0.49 91.68 0.49Q90.16 0.49 88.82-0.09 87.48-0.66 86.48-1.66 85.48-2.66 84.9-4 84.33-5.35 84.33-6.86L84.33-6.86 84.33-18.14Q84.33-19.65 84.9-21 85.48-22.34 86.48-23.34 87.48-24.34 88.82-24.91 90.16-25.49 91.68-25.49L91.68-25.49 93.68-25.49Q95.19-25.49 96.53-24.91 97.88-24.34 98.88-23.34 99.88-22.34 100.45-21 101.03-19.65 101.03-18.14L101.03-18.14 101.03-17.14 98.02-16.65 98.02-18.31Q98.02-19.21 97.68-20.01 97.34-20.8 96.75-21.39 96.17-21.97 95.38-22.31 94.58-22.66 93.68-22.66L93.68-22.66 91.68-22.66Q90.77-22.66 89.98-22.31 89.19-21.97 88.6-21.39 88.01-20.8 87.67-20.01 87.33-19.21 87.33-18.31L87.33-18.31 87.33-6.69Q87.33-5.79 87.67-4.99 88.01-4.2 88.6-3.61 89.19-3.03 89.98-2.69 90.77-2.34 91.68-2.34L91.68-2.34 93.68-2.34Q94.58-2.34 95.38-2.69 96.17-3.03 96.75-3.61 97.34-4.2 97.68-4.99 98.02-5.79 98.02-6.69L98.02-6.69 98.02-8.35 101.03-7.86 101.03-6.86ZM127.13 0L126.13 0 124.47-2.49Q123.45-1.15 121.91-0.33 120.37 0.49 118.54 0.49L118.54 0.49 117.78 0.49Q116.27 0.49 114.93-0.09 113.58-0.66 112.58-1.66 111.58-2.66 111.01-4 110.44-5.35 110.44-6.86L110.44-6.86 110.44-7.1Q110.44-8.62 111.01-9.96 111.58-11.3 112.58-12.3 113.58-13.31 114.93-13.88 116.27-14.45 117.78-14.45L117.78-14.45 124.13-14.45 124.13-18.31Q124.13-19.21 123.79-20.01 123.45-20.8 122.86-21.39 122.28-21.97 121.48-22.31 120.69-22.66 119.79-22.66L119.79-22.66 118.03-22.66Q117.12-22.66 116.33-22.31 115.54-21.97 114.95-21.39 114.37-20.8 114.02-20.01 113.68-19.21 113.68-18.31L113.68-18.31 113.68-17.41 110.68-17.9 110.68-18.14Q110.68-19.65 111.25-21 111.83-22.34 112.83-23.34 113.83-24.34 115.17-24.91 116.51-25.49 118.03-25.49L118.03-25.49 119.79-25.49Q121.3-25.49 122.64-24.91 123.99-24.34 124.99-23.34 125.99-22.34 126.56-21 127.13-19.65 127.13-18.14L127.13-18.14 127.13 0ZM124.13-6.69L124.13-12.11 117.78-12.11Q116.88-12.11 116.09-11.77 115.29-11.43 114.71-10.83 114.12-10.23 113.78-9.44 113.44-8.64 113.44-7.74L113.44-7.74 113.44-6.69Q113.44-5.79 113.78-4.99 114.12-4.2 114.71-3.61 115.29-3.03 116.09-2.69 116.88-2.34 117.78-2.34L117.78-2.34 119.79-2.34Q120.69-2.34 121.48-2.69 122.28-3.03 122.86-3.61 123.45-4.2 123.79-4.99 124.13-5.79 124.13-6.69L124.13-6.69ZM148.38 0L145.65 0Q144.28 0 143.07-0.51 141.86-1.03 140.97-1.93 140.08-2.83 139.56-4.03 139.03-5.22 139.03-6.59L139.03-6.59 139.03-22.14 134.54-22.14 134.54-25 139.03-25 139.03-31.01 142.04-31.49 142.04-25 148.38-25 148.38-22.14 142.04-22.14 142.04-6.45Q142.04-5.69 142.32-5.04 142.6-4.39 143.09-3.91 143.57-3.42 144.23-3.14 144.89-2.86 145.65-2.86L145.65-2.86 148.38-2.86 148.38 0ZM174-6.86L174-6.86Q174-5.35 173.43-4 172.86-2.66 171.85-1.66 170.85-0.66 169.51-0.09 168.17 0.49 166.65 0.49L166.65 0.49 164.65 0.49Q163.14 0.49 161.8-0.09 160.45-0.66 159.45-1.66 158.45-2.66 157.88-4 157.3-5.35 157.3-6.86L157.3-6.86 157.3-18.14Q157.3-19.65 157.88-21 158.45-22.34 159.45-23.34 160.45-24.34 161.8-24.91 163.14-25.49 164.65-25.49L164.65-25.49 166.65-25.49Q168.17-25.49 169.51-24.91 170.85-24.34 171.85-23.34 172.86-22.34 173.43-21 174-19.65 174-18.14L174-18.14 174-12.26 160.31-12.26 160.31-6.69Q160.31-5.79 160.65-4.99 160.99-4.2 161.58-3.61 162.16-3.03 162.96-2.69 163.75-2.34 164.65-2.34L164.65-2.34 166.65-2.34Q167.56-2.34 168.35-2.69 169.14-3.03 169.73-3.61 170.32-4.2 170.66-4.99 171-5.79 171-6.69L171-6.69 171-8.35 174-7.86 174-6.86ZM171-14.6L171-18.31Q171-19.21 170.66-20.01 170.32-20.8 169.73-21.39 169.14-21.97 168.35-22.31 167.56-22.66 166.65-22.66L166.65-22.66 164.65-22.66Q163.75-22.66 162.96-22.31 162.16-21.97 161.58-21.39 160.99-20.8 160.65-20.01 160.31-19.21 160.31-18.31L160.31-18.31 160.31-14.6 171-14.6ZM219.02 0L199.31 0 199.31-35.01 219.02-35.01 219.02-32.01 202.46-32.01 202.46-18.99 215.87-18.99 215.87-15.99 202.46-15.99 202.46-3 219.02-3 219.02 0ZM256.82 0L253.81 0 253.81-18.31Q253.81-19.21 253.47-20.01 253.13-20.8 252.54-21.39 251.96-21.97 251.16-22.31 250.37-22.66 249.47-22.66L249.47-22.66 247.98-22.66Q247.08-22.66 246.28-22.31 245.49-21.97 244.89-21.39 244.29-20.8 243.95-20.01 243.61-19.21 243.61-18.31L243.61-18.31 243.61 0 240.63 0 240.63-18.31Q240.63-19.21 240.29-20.01 239.95-20.8 239.35-21.39 238.75-21.97 237.96-22.31 237.16-22.66 236.26-22.66L236.26-22.66 234.77-22.66Q233.87-22.66 233.07-22.31 232.28-21.97 231.69-21.39 231.11-20.8 230.77-20.01 230.43-19.21 230.43-18.31L230.43-18.31 230.43 0 227.42 0 227.42-25 228.42-25 230.06-22.46Q231.08-23.85 232.63-24.67 234.18-25.49 236.02-25.49L236.02-25.49 236.26-25.49Q238.38-25.49 240.09-24.44 241.8-23.39 242.73-21.66L242.73-21.66Q243.19-22.51 243.88-23.22 244.56-23.93 245.39-24.43 246.22-24.93 247.2-25.21 248.17-25.49 249.22-25.49L249.22-25.49 249.47-25.49Q250.98-25.49 252.32-24.91 253.67-24.34 254.67-23.34 255.67-22.34 256.24-21 256.82-19.65 256.82-18.14L256.82-18.14 256.82 0ZM282.92-6.86L282.92-6.86Q282.92-5.35 282.35-4 281.78-2.66 280.78-1.66 279.77-0.66 278.43-0.09 277.09 0.49 275.58 0.49L275.58 0.49 274.82 0.49Q273.13 0.49 271.69-0.2 270.25-0.88 269.23-2.1L269.23-2.1 269.23 10.01 266.22 10.01 266.22-25 267.23-25 268.86-22.46Q269.89-23.85 271.44-24.67 272.99-25.49 274.82-25.49L274.82-25.49 275.58-25.49Q277.09-25.49 278.43-24.91 279.77-24.34 280.78-23.34 281.78-22.34 282.35-21 282.92-19.65 282.92-18.14L282.92-18.14 282.92-6.86ZM279.92-6.69L279.92-18.31Q279.92-19.21 279.58-20.01 279.24-20.8 278.65-21.39 278.07-21.97 277.27-22.31 276.48-22.66 275.58-22.66L275.58-22.66 273.57-22.66Q272.67-22.66 271.88-22.31 271.08-21.97 270.5-21.39 269.91-20.8 269.57-20.01 269.23-19.21 269.23-18.31L269.23-18.31 269.23-6.69Q269.23-5.79 269.57-4.99 269.91-4.2 270.5-3.61 271.08-3.03 271.88-2.69 272.67-2.34 273.57-2.34L273.57-2.34 275.58-2.34Q276.48-2.34 277.27-2.69 278.07-3.03 278.65-3.61 279.24-4.2 279.58-4.99 279.92-5.79 279.92-6.69L279.92-6.69ZM309.03-6.86L309.03-6.86Q309.03-5.35 308.46-4 307.88-2.66 306.88-1.66 305.88-0.66 304.54-0.09 303.2 0.49 301.68 0.49L301.68 0.49 299.68 0.49Q298.17 0.49 296.82-0.09 295.48-0.66 294.48-1.66 293.48-2.66 292.91-4 292.33-5.35 292.33-6.86L292.33-6.86 292.33-18.14Q292.33-19.65 292.91-21 293.48-22.34 294.48-23.34 295.48-24.34 296.82-24.91 298.17-25.49 299.68-25.49L299.68-25.49 301.68-25.49Q303.2-25.49 304.54-24.91 305.88-24.34 306.88-23.34 307.88-22.34 308.46-21 309.03-19.65 309.03-18.14L309.03-18.14 309.03-6.86ZM306.03-6.69L306.03-18.31Q306.03-19.21 305.69-20.01 305.35-20.8 304.76-21.39 304.17-21.97 303.38-22.31 302.59-22.66 301.68-22.66L301.68-22.66 299.68-22.66Q298.78-22.66 297.98-22.31 297.19-21.97 296.6-21.39 296.02-20.8 295.68-20.01 295.34-19.21 295.34-18.31L295.34-18.31 295.34-6.69Q295.34-5.79 295.68-4.99 296.02-4.2 296.6-3.61 297.19-3.03 297.98-2.69 298.78-2.34 299.68-2.34L299.68-2.34 301.68-2.34Q302.59-2.34 303.38-2.69 304.17-3.03 304.76-3.61 305.35-4.2 305.69-4.99 306.03-5.79 306.03-6.69L306.03-6.69ZM347.83-25L339.48 0 337.85 0 331.99-18.85 331.89-20.14 331.79-18.85 325.93 0 324.27 0 315.93-25 318.98-25 324.93-6.1 325.03-4.81 325.13-6.1 330.99-25 332.8-25 338.63-6.1 338.73-4.81 338.83-6.1 344.78-25 347.83-25ZM371.45-6.86L371.45-6.86Q371.45-5.35 370.88-4 370.3-2.66 369.3-1.66 368.3-0.66 366.96-0.09 365.62 0.49 364.1 0.49L364.1 0.49 362.1 0.49Q360.59 0.49 359.24-0.09 357.9-0.66 356.9-1.66 355.9-2.66 355.33-4 354.75-5.35 354.75-6.86L354.75-6.86 354.75-18.14Q354.75-19.65 355.33-21 355.9-22.34 356.9-23.34 357.9-24.34 359.24-24.91 360.59-25.49 362.1-25.49L362.1-25.49 364.1-25.49Q365.62-25.49 366.96-24.91 368.3-24.34 369.3-23.34 370.3-22.34 370.88-21 371.45-19.65 371.45-18.14L371.45-18.14 371.45-12.26 357.76-12.26 357.76-6.69Q357.76-5.79 358.1-4.99 358.44-4.2 359.02-3.61 359.61-3.03 360.4-2.69 361.2-2.34 362.1-2.34L362.1-2.34 364.1-2.34Q365.01-2.34 365.8-2.69 366.59-3.03 367.18-3.61 367.76-4.2 368.11-4.99 368.45-5.79 368.45-6.69L368.45-6.69 368.45-8.35 371.45-7.86 371.45-6.86ZM368.45-14.6L368.45-18.31Q368.45-19.21 368.11-20.01 367.76-20.8 367.18-21.39 366.59-21.97 365.8-22.31 365.01-22.66 364.1-22.66L364.1-22.66 362.1-22.66Q361.2-22.66 360.4-22.31 359.61-21.97 359.02-21.39 358.44-20.8 358.1-20.01 357.76-19.21 357.76-18.31L357.76-18.31 357.76-14.6 368.45-14.6ZM391.21-22.14L388.21-22.14Q387.3-22.14 386.51-21.8 385.72-21.46 385.13-20.87 384.55-20.29 384.2-19.49 383.86-18.7 383.86-17.8L383.86-17.8 383.86 0 380.86 0 380.86-25 381.86-25 383.5-22.46Q384.52-23.85 386.07-24.67 387.62-25.49 389.45-25.49L389.45-25.49 391.21-25.49 391.21-22.14ZM433.71-8.11L433.71-8.11Q433.71-6.32 433.04-4.76 432.37-3.2 431.19-2.03 430.02-0.85 428.46-0.18 426.9 0.49 425.12 0.49L425.12 0.49 422.62 0.49Q420.84 0.49 419.27-0.18 417.69-0.85 416.52-2.03 415.35-3.2 414.68-4.76 414.01-6.32 414.01-8.11L414.01-8.11 414.01-35.01 417.16-35.01 417.16-8.11Q417.16-6.93 417.6-5.92 418.04-4.91 418.8-4.14 419.57-3.37 420.59-2.93 421.6-2.49 422.77-2.49L422.77-2.49 424.97-2.49Q426.14-2.49 427.15-2.93 428.17-3.37 428.92-4.14 429.68-4.91 430.12-5.92 430.56-6.93 430.56-8.11L430.56-8.11 430.56-35.01 433.71-35.01 433.71-8.11ZM460.33 0L457.33 0 457.33-18.31Q457.33-19.21 456.98-20.01 456.64-20.8 456.06-21.39 455.47-21.97 454.68-22.31 453.88-22.66 452.98-22.66L452.98-22.66 450.98-22.66Q450.08-22.66 449.28-22.31 448.49-21.97 447.9-21.39 447.32-20.8 446.97-20.01 446.63-19.21 446.63-18.31L446.63-18.31 446.63 0 443.63 0 443.63-25 444.63-25 446.27-22.46Q447.29-23.85 448.84-24.67 450.39-25.49 452.22-25.49L452.22-25.49 452.98-25.49Q454.49-25.49 455.84-24.91 457.18-24.34 458.18-23.34 459.18-22.34 459.76-21 460.33-19.65 460.33-18.14L460.33-18.14 460.33 0ZM473.99-31.01L470.49-31.01 470.49-35.01 473.99-35.01 473.99-31.01ZM473.74 0L470.74 0 470.74-25 473.74-25 473.74 0ZM495.99 0L493.26 0Q491.89 0 490.68-0.51 489.47-1.03 488.58-1.93 487.69-2.83 487.17-4.03 486.64-5.22 486.64-6.59L486.64-6.59 486.64-22.14 482.15-22.14 482.15-25 486.64-25 486.64-31.01 489.64-31.49 489.64-25 495.99-25 495.99-22.14 489.64-22.14 489.64-6.45Q489.64-5.69 489.92-5.04 490.2-4.39 490.69-3.91 491.18-3.42 491.84-3.14 492.5-2.86 493.26-2.86L493.26-2.86 495.99-2.86 495.99 0ZM521.61-6.86L521.61-6.86Q521.61-5.35 521.04-4 520.46-2.66 519.46-1.66 518.46-0.66 517.12-0.09 515.78 0.49 514.26 0.49L514.26 0.49 512.26 0.49Q510.75 0.49 509.4-0.09 508.06-0.66 507.06-1.66 506.06-2.66 505.48-4 504.91-5.35 504.91-6.86L504.91-6.86 504.91-18.14Q504.91-19.65 505.48-21 506.06-22.34 507.06-23.34 508.06-24.34 509.4-24.91 510.75-25.49 512.26-25.49L512.26-25.49 514.26-25.49Q515.78-25.49 517.12-24.91 518.46-24.34 519.46-23.34 520.46-22.34 521.04-21 521.61-19.65 521.61-18.14L521.61-18.14 521.61-12.26 507.91-12.26 507.91-6.69Q507.91-5.79 508.26-4.99 508.6-4.2 509.18-3.61 509.77-3.03 510.56-2.69 511.36-2.34 512.26-2.34L512.26-2.34 514.26-2.34Q515.16-2.34 515.96-2.69 516.75-3.03 517.34-3.61 517.92-4.2 518.27-4.99 518.61-5.79 518.61-6.69L518.61-6.69 518.61-8.35 521.61-7.86 521.61-6.86ZM518.61-14.6L518.61-18.31Q518.61-19.21 518.27-20.01 517.92-20.8 517.34-21.39 516.75-21.97 515.96-22.31 515.16-22.66 514.26-22.66L514.26-22.66 512.26-22.66Q511.36-22.66 510.56-22.31 509.77-21.97 509.18-21.39 508.6-20.8 508.26-20.01 507.91-19.21 507.91-18.31L507.91-18.31 507.91-14.6 518.61-14.6Z" opacity="1" transform="matrix(1,0,0,1,0,0)" fill="#003399" class="slogan-text-1" data-fill-palette-color="secondary" id="text-1"></path></svg></g></svg></g></svg></g></svg></g><g transform="matrix(1,0,0,1,252.55259008726807,0)"><svg viewBox="0 0 88.14474489569241 88.14659733763378" height="88.14659733763378" width="88.14474489569241"><g><svg xmlns="http://www.w3.org/2000/svg" xmlns:xlink="http://www.w3.org/1999/xlink" version="1.1" x="0" y="0" viewBox="2.417 2.416 95.166 95.168" enable-background="new 0 0 100 100" xml:space="preserve" height="88.14659733763378" width="88.14474489569241" class="icon-icon-0" data-fill-palette-color="accent" id="icon-0"><path d="M91 60.661V19.338C94.77 18.434 97.583 15.043 97.583 11 97.583 6.267 93.732 2.416 89 2.416 84.956 2.416 81.565 5.23 80.661 9H39.338C38.434 5.23 35.043 2.416 31 2.416 26.267 2.416 22.417 6.267 22.417 11 22.417 15.043 25.23 18.434 29 19.338V60.662C25.23 61.566 22.417 64.957 22.417 69 22.417 73.733 26.267 77.584 31 77.584 35.043 77.584 38.434 74.771 39.338 71H80.661C81.565 74.77 84.956 77.583 89 77.583 93.732 77.583 97.583 73.732 97.583 69 97.583 64.956 94.77 61.565 91 60.661M89 6.416A4.59 4.59 0 0 1 93.583 11C93.583 13.527 91.527 15.583 89 15.583S84.416 13.527 84.416 11A4.59 4.59 0 0 1 89 6.416M26.417 11C26.417 8.472 28.473 6.416 31 6.416S35.583 8.472 35.583 11 33.527 15.583 31 15.583 26.417 13.527 26.417 11M31 73.584C28.473 73.584 26.417 71.527 26.417 69S28.473 64.417 31 64.417 35.583 66.473 35.583 69 33.527 73.584 31 73.584M80.661 67H39.338A8.6 8.6 0 0 0 33 60.662V19.338A8.6 8.6 0 0 0 39.338 13H80.661A8.6 8.6 0 0 0 87 19.338V60.661A8.6 8.6 0 0 0 80.661 67M89 73.583C86.473 73.583 84.416 71.527 84.416 69S86.473 64.416 89 64.416 93.583 66.473 93.583 69 91.527 73.583 89 73.583" fill="#ffcc00" data-fill-palette-color="accent"></path><path d="M71 80.661V39.338C74.77 38.434 77.583 35.043 77.583 31 77.583 26.267 73.732 22.416 69 22.416 64.956 22.416 61.565 25.23 60.661 29H19.338C18.433 25.23 15.043 22.416 11 22.416 6.267 22.416 2.417 26.267 2.417 31 2.417 35.043 5.23 38.434 9 39.338V80.662C5.23 81.566 2.417 84.957 2.417 89 2.417 93.733 6.267 97.584 11 97.584 15.043 97.584 18.434 94.771 19.338 91H60.661C61.565 94.77 64.956 97.583 69 97.583 73.732 97.583 77.583 93.732 77.583 89 77.583 84.956 74.77 81.565 71 80.661M69 26.416A4.59 4.59 0 0 1 73.583 31C73.583 33.527 71.527 35.583 69 35.583S64.416 33.527 64.416 31A4.59 4.59 0 0 1 69 26.416M6.417 31C6.417 28.472 8.473 26.416 11 26.416S15.583 28.472 15.583 31 13.527 35.583 11 35.583 6.417 33.527 6.417 31M11 93.584C8.473 93.584 6.417 91.527 6.417 89S8.473 84.417 11 84.417 15.583 86.473 15.583 89 13.527 93.584 11 93.584M60.661 87H19.338A8.6 8.6 0 0 0 13 80.662V39.338A8.6 8.6 0 0 0 19.338 33H60.661A8.6 8.6 0 0 0 67 39.338V80.661A8.6 8.6 0 0 0 60.661 87M69 93.583C66.473 93.583 64.416 91.527 64.416 89S66.473 84.416 69 84.416 73.583 86.473 73.583 89 71.527 93.583 69 93.583" fill="#ffcc00" data-fill-palette-color="accent"></path></svg></g></svg></g></svg></g></svg></g></svg></g><path d="M190.554 85.98L190.554 20.887 395.52 20.887 395.52 226.313 190.554 226.313 190.554 161.22 192.78 161.22 192.78 224.087 393.294 224.087 393.294 23.113 192.78 23.113 192.78 85.98Z" fill="#898787" stroke="transparent" data-fill-palette-color="tertiary"></path></svg></g><defs></defs></svg><rect width="395.52" height="247.2" fill="none" stroke="none" visibility="hidden"></rect></g></svg></g></svg>